<?xml version="1.0" standalone="no"?>
<!DOCTYPE svg PUBLIC "-//W3C//DTD SVG 20010904//EN"
 "http://www.w3.org/TR/2001/REC-SVG-20010904/DTD/svg10.dtd">
<svg version="1.0" xmlns="http://www.w3.org/2000/svg"
 width="131.000000pt" height="131.000000pt" viewBox="0 0 131.000000 131.000000"
 preserveAspectRatio="xMidYMid meet">
<metadata>
Created by potrace 1.14, written by Peter Selinger 2001-2017
</metadata>
<g transform="translate(0.000000,131.000000) scale(0.100000,-0.100000)"
fill="#000000" stroke="none">
<path d="M0 655 l0 -655 655 0 655 0 0 655 0 655 -655 0 -655 0 0 -655z m847
553 c254 -83 423 -352 384 -613 -55 -372 -440 -591 -793 -450 -270 108 -417
420 -328 695 64 197 241 353 443 390 78 14 216 4 294 -22z"/>
<path d="M511 1184 c-339 -91 -497 -486 -316 -789 68 -112 162 -187 294 -232
66 -23 151 -31 151 -14 0 4 -8 19 -19 32 -28 36 -61 118 -61 150 0 26 2 28 18
18 33 -20 62 -72 56 -99 -4 -15 -2 -20 3 -13 5 6 20 17 33 23 14 6 36 17 50
25 22 13 25 13 28 -1 7 -30 -8 -62 -45 -101 l-38 -38 43 -3 c97 -7 247 60 337
152 208 211 208 543 0 751 -67 67 -153 117 -240 140 -74 19 -222 19 -294 -1z
m76 -210 c5 -13 7 -13 14 -2 7 10 9 10 9 -2 0 -9 -9 -24 -21 -33 -18 -16 -19
-20 -6 -35 20 -24 32 -46 21 -40 -10 6 -89 -5 -116 -16 -35 -15 2 122 41 151
18 13 49 1 58 -23z m-80 -182 c-23 -25 -21 -32 6 -32 16 0 23 -6 23 -19 0 -11
-5 -17 -13 -14 -21 8 -15 -25 6 -36 14 -8 22 -7 32 6 12 14 12 17 0 21 -9 3
-2 9 17 18 22 9 31 20 34 40 2 15 9 29 16 32 17 5 6 -62 -15 -97 -11 -17 -12
-26 -4 -34 19 -19 12 -37 -15 -37 -21 0 -24 4 -19 20 4 14 2 20 -8 20 -34 0
-86 -102 -65 -128 6 -7 8 -15 5 -18 -3 -3 -14 7 -24 22 -27 42 -26 200 2 231
11 12 24 22 29 22 5 1 2 -7 -7 -17z m90 -218 c-3 -3 -12 -4 -19 -1 -8 3 -5 6
6 6 11 1 17 -2 13 -5z m62 -30 c2 -2 2 -7 -2 -10 -9 -9 -68 6 -62 16 5 8 55 4
64 -6z m-78 -27 c22 -17 30 -64 13 -78 -11 -9 -14 -7 -14 9 0 11 -7 25 -15 32
-15 13 -21 50 -7 50 4 0 14 -6 23 -13z"/>
</g>
</svg>
